<?xml version="1.0" encoding="utf-8"?>
<!-- Generated by IcoMoon.io -->
<!DOCTYPE svg PUBLIC "-//W3C//DTD SVG 1.1//EN" "http://www.w3.org/Graphics/SVG/1.1/DTD/svg11.dtd">
<svg version="1.1" xmlns="http://www.w3.org/2000/svg" xmlns:xlink="http://www.w3.org/1999/xlink" width="23" height="32" viewBox="0 0 23 32">
<path d="M11.268 32c0 0-11.268-14.507-11.268-20.533 0-6.347 5.346-11.467 11.425-11.467s11.111 5.12 11.111 11.467c0 6.187-11.268 20.533-11.268 20.533v0zM12.843 15.708c1.873 0 2.753-1.252 2.753-2.574 0-1.223-0.769-2.162-1.775-2.318 0.908-0.199 1.593-0.996 1.593-2.176 0-1.109-0.838-2.418-2.767-2.418h-5.66v9.486h5.856zM11.991 9.721h-2.18v-1.109h2.18c0.293 0 0.559 0.213 0.559 0.54 0 0.341-0.266 0.569-0.559 0.569zM12.075 13.319h-2.264v-1.209h2.264c0.405 0 0.657 0.27 0.657 0.612 0 0.356-0.252 0.597-0.657 0.597z"></path>
</svg>
