<?xml version="1.0" encoding="utf-8"?>
<!-- Generated by IcoMoon.io -->
<!DOCTYPE svg PUBLIC "-//W3C//DTD SVG 1.1//EN" "http://www.w3.org/Graphics/SVG/1.1/DTD/svg11.dtd">
<svg version="1.1" xmlns="http://www.w3.org/2000/svg" xmlns:xlink="http://www.w3.org/1999/xlink" width="23" height="32" viewBox="0 0 23 32">
<path d="M11.268 32c0 0-11.268-14.507-11.268-20.533 0-6.347 5.346-11.467 11.425-11.467s11.111 5.12 11.111 11.467c0 6.187-11.268 20.533-11.268 20.533v0zM12.117 16.036c2.446 0 3.689-1.508 4.234-2.773l-2.432-1.138c-0.238 0.74-0.964 1.38-1.803 1.38-1.356 0-2.264-1.052-2.264-2.375s0.908-2.375 2.264-2.375c0.838 0 1.565 0.64 1.803 1.38l2.432-1.152c-0.559-1.308-1.789-2.759-4.234-2.759-2.921 0-5.129 1.977-5.129 4.907 0 2.916 2.208 4.907 5.129 4.907z"></path>
</svg>
