<?xml version="1.0" encoding="utf-8"?>
<!-- Generated by IcoMoon.io -->
<!DOCTYPE svg PUBLIC "-//W3C//DTD SVG 1.1//EN" "http://www.w3.org/Graphics/SVG/1.1/DTD/svg11.dtd">
<svg version="1.1" xmlns="http://www.w3.org/2000/svg" xmlns:xlink="http://www.w3.org/1999/xlink" width="23" height="32" viewBox="0 0 23 32">
<path d="M11.268 32c0 0-11.268-14.507-11.268-20.533 0-6.347 5.346-11.467 11.425-11.467s11.111 5.12 11.111 11.467c0 6.187-11.268 20.533-11.268 20.533v0zM11.243 16.036c1.831 0 3.228-0.754 4.262-1.92v-3.883h-4.542v2.503h1.733v0.341c-0.293 0.228-0.922 0.427-1.453 0.427-1.356 0-2.264-1.052-2.264-2.375s0.908-2.375 2.264-2.375c0.838 0 1.453 0.597 1.719 1.18l2.376-1.237c-0.587-1.223-1.873-2.475-4.095-2.475-2.823 0-5.129 1.863-5.129 4.907 0 3.029 2.306 4.907 5.129 4.907z"></path>
</svg>
