<?xml version="1.0" encoding="utf-8"?>
<!-- Generated by IcoMoon.io -->
<!DOCTYPE svg PUBLIC "-//W3C//DTD SVG 1.1//EN" "http://www.w3.org/Graphics/SVG/1.1/DTD/svg11.dtd">
<svg version="1.1" xmlns="http://www.w3.org/2000/svg" xmlns:xlink="http://www.w3.org/1999/xlink" width="23" height="32" viewBox="0 0 23 32">
<path d="M0 11.467c0-6.347 5.346-11.467 11.425-11.467s11.111 5.12 11.111 11.467c0 6.187-11.268 20.533-11.268 20.533s-11.268-14.507-11.268-20.533v0zM10.684 15.708v-2.987h2.152c2.18 0 3.354-1.479 3.354-3.243 0-1.778-1.174-3.257-3.354-3.257h-4.975v9.486h2.823zM12.473 10.219h-1.789v-1.493h1.789c0.475 0 0.852 0.242 0.852 0.754 0 0.498-0.377 0.74-0.852 0.74z"></path>
</svg>
