<?xml version="1.0" encoding="utf-8"?>
<!-- Generated by IcoMoon.io -->
<!DOCTYPE svg PUBLIC "-//W3C//DTD SVG 1.1//EN" "http://www.w3.org/Graphics/SVG/1.1/DTD/svg11.dtd">
<svg version="1.1" xmlns="http://www.w3.org/2000/svg" xmlns:xlink="http://www.w3.org/1999/xlink" width="23" height="32" viewBox="0 0 23 32">
<path d="M0 11.467c0-6.347 5.346-11.467 11.425-11.467s11.111 5.12 11.111 11.467c0 6.187-11.268 20.533-11.268 20.533s-11.268-14.507-11.268-20.533v0zM11.215 16.036c0.643 0 1.258-0.1 1.831-0.284l0.657 0.825 1.957-1.593-0.503-0.64c0.727-0.825 1.16-1.934 1.16-3.214 0-2.916-2.222-4.907-5.101-4.907s-5.101 1.991-5.101 4.907c0 2.916 2.222 4.907 5.101 4.907zM11.215 13.504c-1.356 0-2.236-1.052-2.236-2.375s0.88-2.375 2.236-2.375c1.356 0 2.236 1.052 2.236 2.375 0 0.313-0.042 0.597-0.14 0.868l-0.699-0.91-1.957 1.593 0.643 0.825h-0.084z"></path>
</svg>
