<?xml version="1.0" encoding="utf-8"?>
<!-- Generated by IcoMoon.io -->
<!DOCTYPE svg PUBLIC "-//W3C//DTD SVG 1.1//EN" "http://www.w3.org/Graphics/SVG/1.1/DTD/svg11.dtd">
<svg version="1.1" xmlns="http://www.w3.org/2000/svg" xmlns:xlink="http://www.w3.org/1999/xlink" width="23" height="32" viewBox="0 0 23 32">
<path d="M0 11.467c0-6.347 5.346-11.467 11.425-11.467s11.111 5.12 11.111 11.467c0 6.187-11.268 20.533-11.268 20.533s-11.268-14.507-11.268-20.533v0zM15.331 15.708l-1.691-3.356c0.741-0.37 1.677-1.237 1.677-2.873 0-1.778-1.174-3.257-3.354-3.257h-4.975v9.486h2.823v-2.987h1.020l1.286 2.987h3.214zM11.53 10.219h-1.719v-1.493h1.719c0.475 0 0.922 0.228 0.922 0.74 0 0.526-0.447 0.754-0.922 0.754z"></path>
</svg>
