<?xml version="1.0" encoding="utf-8"?>
<!-- Generated by IcoMoon.io -->
<!DOCTYPE svg PUBLIC "-//W3C//DTD SVG 1.1//EN" "http://www.w3.org/Graphics/SVG/1.1/DTD/svg11.dtd">
<svg version="1.1" xmlns="http://www.w3.org/2000/svg" xmlns:xlink="http://www.w3.org/1999/xlink" width="23" height="32" viewBox="0 0 23 32">
<path d="M0 11.467c0-6.347 5.346-11.467 11.425-11.467s11.111 5.12 11.111 11.467c0 6.187-11.268 20.533-11.268 20.533s-11.268-14.507-11.268-20.533v0zM11.32 16.021c2.502 0 4.025-1.209 4.025-3.3 0-3.527-5.185-2.759-5.185-3.655 0-0.242 0.154-0.427 0.713-0.427 0.88 0 1.929 0.313 2.739 0.939l1.509-2.034c-1.062-0.882-2.432-1.323-3.955-1.323-2.557 0-3.871 1.536-3.871 3.143 0 3.74 5.199 2.816 5.199 3.726 0 0.37-0.503 0.512-1.034 0.512-1.258 0-2.306-0.54-3.005-1.223l-1.467 2.133c0.992 0.91 2.348 1.508 4.332 1.508z"></path>
</svg>
