<?xml version="1.0" encoding="utf-8"?>
<!-- Generated by IcoMoon.io -->
<!DOCTYPE svg PUBLIC "-//W3C//DTD SVG 1.1//EN" "http://www.w3.org/Graphics/SVG/1.1/DTD/svg11.dtd">
<svg version="1.1" xmlns="http://www.w3.org/2000/svg" xmlns:xlink="http://www.w3.org/1999/xlink" width="23" height="32" viewBox="0 0 23 32">
<path d="M0 11.467c0-6.347 5.346-11.467 11.425-11.467s11.111 5.12 11.111 11.467c0 6.187-11.268 20.533-11.268 20.533s-11.268-14.507-11.268-20.533v0zM15.448 16v-2.503h-3.033c2.222-1.493 2.949-2.56 2.949-3.854 0-1.906-1.579-3.271-3.997-3.271-1.3 0-2.865 0.441-3.941 1.607l1.537 1.906c0.713-0.612 1.467-0.981 2.46-0.981 0.601 0 1.076 0.284 1.076 0.74 0 0.711-0.405 1.067-4.668 4.124v2.233h7.616z"></path>
</svg>
