<?xml version="1.0" encoding="utf-8"?>
<!-- Generated by IcoMoon.io -->
<!DOCTYPE svg PUBLIC "-//W3C//DTD SVG 1.1//EN" "http://www.w3.org/Graphics/SVG/1.1/DTD/svg11.dtd">
<svg version="1.1" xmlns="http://www.w3.org/2000/svg" xmlns:xlink="http://www.w3.org/1999/xlink" width="23" height="32" viewBox="0 0 23 32">
<path d="M0 11.467c0-6.347 5.346-11.467 11.425-11.467s11.111 5.12 11.111 11.467c0 6.187-11.268 20.533-11.268 20.533s-11.268-14.507-11.268-20.533v0zM11.012 16.021c2.418 0 4.053-1.152 4.053-2.844 0-1.308-1.174-2.105-2.208-2.219 1.188-0.199 2.054-1.095 2.054-2.105 0-1.564-1.314-2.631-3.885-2.631-1.817 0-3.089 0.64-3.913 1.564l1.328 1.792c0.643-0.54 1.481-0.825 2.278-0.825 0.811 0 1.384 0.171 1.384 0.612 0 0.299-0.391 0.469-1.286 0.469-0.335 0-1.174 0-1.356-0.014v2.546c0.14-0.014 0.95-0.028 1.356-0.028 1.244 0 1.439 0.185 1.439 0.512 0 0.341-0.433 0.64-1.356 0.64-0.713 0-1.803-0.27-2.53-0.91l-1.384 1.963c0.783 0.853 2.18 1.479 4.025 1.479z"></path>
</svg>
