<?xml version="1.0" encoding="utf-8"?>
<!-- Generated by IcoMoon.io -->
<!DOCTYPE svg PUBLIC "-//W3C//DTD SVG 1.1//EN" "http://www.w3.org/Graphics/SVG/1.1/DTD/svg11.dtd">
<svg version="1.1" xmlns="http://www.w3.org/2000/svg" xmlns:xlink="http://www.w3.org/1999/xlink" width="23" height="32" viewBox="0 0 23 32">
<path d="M0 11.467c0-6.347 5.346-11.467 11.425-11.467s11.111 5.12 11.111 11.467c0 6.187-11.268 20.533-11.268 20.533s-11.268-14.507-11.268-20.533v0zM10.641 16.171c2.613 0 4.151-1.351 4.151-3.442 0-1.892-1.412-3.1-3.005-3.1-0.783 0-1.495 0.284-1.943 0.725v-1.337h4.304v-2.503h-7.127v5.76l1.943 0.455c0.475-0.455 1.020-0.654 1.733-0.654 0.866 0 1.23 0.356 1.23 0.782 0 0.398-0.377 0.782-1.314 0.782-0.811 0-1.719-0.284-2.362-0.825l-1.509 2.020c0.908 0.839 2.236 1.337 3.899 1.337z"></path>
</svg>
