<?xml version="1.0" encoding="utf-8"?>
<!-- Generated by IcoMoon.io -->
<!DOCTYPE svg PUBLIC "-//W3C//DTD SVG 1.1//EN" "http://www.w3.org/Graphics/SVG/1.1/DTD/svg11.dtd">
<svg version="1.1" xmlns="http://www.w3.org/2000/svg" xmlns:xlink="http://www.w3.org/1999/xlink" width="23" height="32" viewBox="0 0 23 32">
<path d="M0 11.467c0-6.347 5.346-11.467 11.425-11.467s11.111 5.12 11.111 11.467c0 6.187-11.268 20.533-11.268 20.533s-11.268-14.507-11.268-20.533v0zM11.542 16.171c2.068 0 4.151-0.768 4.151-2.702 0-1.024-0.727-1.906-1.789-2.361 0.978-0.412 1.635-1.081 1.635-2.19 0-1.863-2.082-2.546-3.997-2.546s-3.997 0.683-3.997 2.546c0 1.109 0.643 1.778 1.621 2.19-1.062 0.455-1.775 1.337-1.775 2.361 0 1.934 2.082 2.702 4.151 2.702zM11.542 9.998c-0.573-0.085-1.132-0.356-1.132-0.654 0-0.384 0.419-0.64 1.132-0.64 0.699 0 1.118 0.256 1.118 0.64 0 0.299-0.545 0.569-1.118 0.654zM11.542 13.838c-0.797 0-1.286-0.299-1.286-0.697 0-0.37 0.685-0.654 1.286-0.74 0.587 0.085 1.286 0.37 1.286 0.74 0 0.398-0.517 0.697-1.286 0.697z"></path>
</svg>
