<?xml version="1.0" encoding="utf-8"?>
<!-- Generated by IcoMoon.io -->
<!DOCTYPE svg PUBLIC "-//W3C//DTD SVG 1.1//EN" "http://www.w3.org/Graphics/SVG/1.1/DTD/svg11.dtd">
<svg version="1.1" xmlns="http://www.w3.org/2000/svg" xmlns:xlink="http://www.w3.org/1999/xlink" width="23" height="32" viewBox="0 0 23 32">
<path d="M0 11.467c0-6.347 5.346-11.467 11.425-11.467s11.111 5.12 11.111 11.467c0 6.187-11.268 20.533-11.268 20.533s-11.268-14.507-11.268-20.533v0zM10.766 16.156c2.893 0 4.891-1.735 4.891-4.907 0-2.773-1.384-4.892-4.444-4.892-2.208 0-3.871 1.351-3.871 3.413 0 2.020 1.621 3.143 3.298 3.143 0.852 0 1.691-0.341 2.166-0.967v0.043c0 0.924-0.852 1.636-2.040 1.636-0.685 0-1.188-0.128-1.719-0.512l-1.188 2.219c0.741 0.512 1.845 0.825 2.907 0.825zM11.507 10.482c-0.559 0-1.3-0.213-1.3-0.825 0-0.398 0.475-0.768 1.174-0.768 0.992 0 1.384 0.569 1.439 1.209-0.377 0.299-0.838 0.384-1.314 0.384z"></path>
</svg>
